<svg xmlns="http://www.w3.org/2000/svg" viewBox="0 0 97.19999694824219 169.10000610351562" preserveAspectRatio="xMidYMid meet">
<path d="M78.6 0h-15v8.4h-7.5V0H41v8.4h-7.5V0h-15v20.7h60.1V0zM0 27.8v92.7c0 8.8 2.4 17.1 6.5 24.3 8.4 14.5 24.1 24.3 42.1 24.3s33.7-9.8 42.1-24.3c4.1-7.1 6.5-15.4 6.5-24.3V27.8H0z" fill="#ffdc00"></path>
<path d="M48.6 160.2c14.7 0 27.5-8 34.4-19.9l-34.4-19.9-34.4 19.9c6.8 11.9 19.7 19.9 34.4 19.9zM8.8 36.6v60.9l5.3 3.1 34.4 19.9L83 100.6l5.3-3.1V36.6H8.8zm67.4 43.8c0 8.7-7.1 15.8-15.8 15.8-5.3 0-9.5-2.6-11.9-6.7-2.4 4-6.6 6.7-11.9 6.7-8.7 0-15.8-7.1-15.8-15.8v-1.8l7.9-4.4v6.5c0 4.4 3.5 7.9 7.9 7.9s7.9-3.5 7.9-7.9V62.2h-6.2v-7.5h6.2V47h7.9v7.7h6.2v7.5h-6.2v18.5c0 4.4 3.5 7.9 7.9 7.9s7.9-3.5 7.9-7.9v-6.5l7.9 4.4v1.8z" fill="red"></path>
</svg>