<?xml version="1.0" encoding="utf-8"?>
<!-- Generator: Adobe Illustrator 24.0.2, SVG Export Plug-In . SVG Version: 6.00 Build 0)  -->
<svg version="1.1" baseProfile="tiny" id="Слой_1"
	 xmlns="http://www.w3.org/2000/svg" xmlns:xlink="http://www.w3.org/1999/xlink" x="0px" y="0px" viewBox="0 0 750 302.4"
	 xml:space="preserve">
<g>
	<path fill="#FCFCFC" d="M739.3,208.9c0-1.1-0.1-2.2-0.3-3.3c-0.8-5.3-3.5-9.2-8.6-11.2c-1.9-0.7-3.8-1.1-5.8-1.2
		c-9.3-0.6-16.8,2.7-22.6,10.1c-0.2,0.2-0.3,0.5-0.5,0.9c1.5,1.9,3,3.7,4.6,5.6c0.3-0.2,0.3-0.3,0.4-0.3c0.2-0.3,0.3-0.5,0.5-0.8
		c4.2-6.6,10.3-9.3,18-8.5c1.4,0.1,2.8,0.6,4.1,1.4c1.2,0.7,2.2,1.7,2.6,3c1,3.6-0.1,5.6-2.9,6.6c-0.6,0.2-1.2,0.4-1.8,0.6
		c-2.8,0.6-5.6,1.3-8.4,1.9c-3.4,0.7-6.9,1.6-9.9,3.4c-3.9,2.3-5.8,5.6-5.5,10.1c0.2,3.6,1.8,6.4,5,8.2c1.7,1,3.5,1.6,5.4,1.7
		c6.4,0.6,12.2-0.9,17.3-4.9c0.3-0.2,0.5-0.6,1-0.3c0.3,1.3-0.2,2.7,0.3,4c3.4,0.4,5.7,0.3,7.2-0.2c0-0.4,0.1-0.8,0.1-1.1
		C739.3,225.8,739.3,217.4,739.3,208.9z M731.9,220.4c-0.1,1.8-1,3.3-2.2,4.7c-1.8,2-4,3.3-6.5,4.3c-2.5,0.9-5.1,1.2-7.8,1
		c-0.6-0.1-1.3-0.2-1.9-0.4c-1.7-0.5-2.7-1.6-3-3.4c-0.3-1.9,0.2-3.5,1.8-4.6c1.2-0.8,2.5-1.3,3.9-1.7c1.7-0.5,3.4-0.8,5.1-1.2
		c1.8-0.4,3.6-0.8,5.3-1.4c1.6-0.5,3.3-1.2,5.1-1.9C731.9,217.5,732,218.9,731.9,220.4z M697.1,228.8h-6.7V208c0-2.2,0-4.5,0-6.7
		c0-2.3,0.2-4.6-0.1-7h-10.8c-3.7,0-7.3,0-11,0c-3.6,0-7.1-0.1-10.8,0.1v1.8c0,4.2,0,8.5,0,12.7c0,4.3,0.1,8.6-0.5,12.9
		c-0.2,1.6-0.5,3.2-1.1,4.6c-0.7,1.6-1.8,2.6-3.7,2.4c-0.9-0.1-1.7,0-3,0c0.3,3,0.5,5.8,0.8,8.5c0.3,2.8,0.4,5.7,1,8.6
		c1.1,0,2.1,0,3.2,0c1.1-0.1,2.2,0.3,3.3-0.3c0-2.4-0.1-4.7-0.3-7c-0.1-0.9-0.3-1.9,0.2-2.8h30.7c0.4,0,0.8,0,1.2,0
		c0.1,0,0.1,0,0.2,0.1c0.1,0,0.1,0.1,0.3,0.3c0,1.4,0,3,0,4.6c0,1.6-0.2,3.3,0.2,5c2.2,0.1,4.2,0.2,6.3-0.1c0.5-2.8,0.5-5.6,0.5-8.4
		C696.9,234.6,697.5,231.8,697.1,228.8z M682.8,228.7c-3,0.2-18.2,0.2-20.1,0c0.4-1.4,0.7-2.8,1-4.2c1-4.6,1.1-9.3,1.2-14
		c0.1-2.4,0-4.8,0-7.2c0-0.5-0.1-1.1,0.2-1.6c1.8-0.3,15.3-0.4,17.6,0C683,203.4,683,225.7,682.8,228.7z M669.4,151
		c0-8.1,0-16.1,0-24.2c0-1.7-0.2-3.4-0.5-5c-1.1-5.4-4.2-9-9.5-10.8c-1.5-0.5-3.1-0.7-4.7-0.9c-9-0.7-16.4,2.4-22.2,9.4
		c-0.4,0.5-0.9,0.9-0.9,1.7c1.5,1.8,3,3.6,4.4,5.4c0.6-0.3,0.7-0.6,0.9-1c4.1-6.5,10-9.3,17.7-8.7c1.3,0.1,2.5,0.5,3.7,1
		c1,0.5,1.9,1.2,2.6,2.1c2.2,3,1.2,6.7-2.3,8c-1,0.4-2.1,0.7-3.2,0.9c-3,0.7-6.1,1.3-9.1,2c-3.1,0.7-6.2,1.7-8.8,3.6
		c-3.6,2.5-4.9,6-4.3,10.2c0.5,4.1,3,6.8,6.8,8.2c0.5,0.2,1.1,0.4,1.6,0.5c7,1.4,13.3-0.2,19-4.3c0.4-0.3,0.6-0.8,1.2-0.6
		c0.3,1.3-0.1,2.7,0.3,4.1c2.4,0,4.8,0.1,7.1-0.1C669.5,152.1,669.4,151.5,669.4,151z M662,136.1c0,0.6-0.1,1.3-0.2,1.9
		c-0.3,1.6-1.1,3-2.2,4.2c-2.9,3.1-6.6,4.6-10.8,5.1c-1,0.1-2.1,0-3.1,0c-0.8,0-1.6-0.2-2.3-0.5c-3.4-1-3.5-6-1.2-7.6
		c0.9-0.6,1.9-1.2,3-1.5c1.6-0.5,3.2-0.9,4.9-1.3c2-0.5,4-1,6-1.4c1.9-0.5,3.8-1.3,5.9-2.2C662.1,134.1,662,135.1,662,136.1z
		 M641.2,206.5c-0.8-7.3-5-11.5-11-12.8c-6.8-1.5-13.2-0.5-19.1,3.1c-3,1.8-5.6,4.2-7.6,7.3c0.8,1,1.5,1.9,2.3,2.8
		c0.8,1,1.5,2,2.5,2.8c0.2-0.2,0.3-0.2,0.3-0.3c0.1-0.2,0.3-0.4,0.4-0.6c4.1-6.7,10.1-9.5,17.8-8.7c2.1,0.2,4.1,0.9,5.6,2.4
		c2.9,3,2,7.2-1.8,8.7c-1.7,0.6-3.5,1-5.3,1.4c-2.9,0.6-5.8,1.2-8.6,1.9c-2.4,0.6-4.7,1.5-6.8,2.9c-3,2-4.7,4.8-4.7,8.4
		c-0.1,5.4,2.6,8.6,6.8,10.2c1.2,0.5,2.4,0.8,3.7,0.9c6.3,0.5,12-0.9,17.1-4.7c0.3-0.2,0.5-0.7,1-0.4c0.5,1.3-0.2,2.7,0.4,4h7.1
		c0-0.6,0.1-1,0.1-1.4c0-8.5,0-16.9,0-25.4C641.3,208.1,641.2,207.3,641.2,206.5z M629.2,227.3c-3.7,2.4-7.7,3.4-12.1,3
		c-0.6-0.1-1.3-0.2-1.8-0.5c-3.2-1.2-3.8-5.4-1.2-7.6c0.9-0.7,1.9-1.2,3-1.5c1.9-0.6,3.8-1,5.8-1.5c3.5-0.8,7-1.6,10.2-3.2
		c0.2-0.1,0.5-0.1,0.7-0.1C634.8,220.7,633.3,224.5,629.2,227.3z M623.2,145.5c-2.5-2.3-5.1-4.6-7.7-6.9c-2.6-2.4-5.3-4.6-7.9-7.2
		c3.6-3.4,7.1-6.6,10.6-9.9c3.5-3.3,7-6.4,10.5-9.9c-0.3-0.2-0.4-0.3-0.5-0.3c-3,0-5.9,0-8.8,0c-0.2,0.1-0.3,0.1-0.3,0.2
		c-5.8,5.4-11.6,10.8-17.3,16.2c-0.2,0.2-0.4,0.3-0.5,0.5c-0.1,0.1-0.2,0.2-0.4,0.3c-0.1,0-0.1,0.1-0.2,0.1c-0.1,0-0.2,0-0.3,0
		c-0.3-0.8-0.2-1.6-0.2-2.3c0-4.4,0-8.8,0-13.2c0-0.5,0.1-1.1-0.4-1.7c-1.1,0-2.3,0-3.5,0c-1.2,0-2.4-0.1-3.5,0.1
		c-0.3,3.3-0.2,39.5,0.1,41.4c2.3,0,4.7,0.1,7.2-0.1c0-0.9,0.1-1.7,0.1-2.5c0-4.6,0-9.3,0-13.9c0-0.4-0.2-1,0.5-1.3
		c0.3,0.2,0.6,0.5,0.9,0.7c3.9,3.5,7.8,7.1,11.8,10.6c2,1.8,4,3.6,6,5.5c0.5,0.5,1.1,0.9,1.9,0.9c3.2,0,6.3,0,10.1,0
		C628.4,150.1,625.8,147.8,623.2,145.5z M595.3,206.6c-4.8-13.6-21.8-17.9-31.9-8.6c-0.2,0.2-0.4,0.5-0.8,0.3
		c-0.4-1.3,0.2-2.7-0.4-4c-1.2,0-2.4,0-3.6,0c-1.2,0-2.4-0.2-3.7,0.2v1.3c0,20.1,0,40.3,0.1,60.4c0,0.1,0,0.1,0.1,0.2
		c0,0.1,0.1,0.1,0.3,0.2h7.2c0-1.5,0-2.9,0-4.2v-12.5c0-1.4,0-2.7,0-4.1c0-1.3-0.1-2.7,0.1-4c0.8,0,1.1,0.6,1.5,0.9
		c8.7,7.3,21.8,5,28.1-3.5C597.3,222.3,598.1,214.6,595.3,206.6z M586.1,224.4c-5.1,7.3-16.8,7.3-21.6-0.8
		c-3.2-5.4-3.3-11.1-0.3-16.6c2.5-4.5,6.5-6.7,11.7-6.5c5,0.1,8.8,2.5,11.2,6.9c1.3,2.4,1.8,4.8,1.8,7.8
		C588.9,218.5,588.1,221.6,586.1,224.4z M575.2,128.6c-2.2-0.9-4.6-1.4-7-1.5c-3-0.1-6.1,0-9.1-0.1c-0.7,0-1.4,0.1-2.3-0.2
		c-0.1-1.2-0.1-2.5-0.1-3.8c0-1.3,0-2.6,0-3.8c0-1.4,0-2.7,0-4.1c0-1.3,0.1-2.5-0.1-3.8h-7.3v39.7c0,0.4,0,0.8,0,1.2
		c0,0.1,0,0.2,0.1,0.2c0,0.1,0.1,0.1,0.2,0.2c0.1,0,0.4,0.1,0.6,0.1c5.6,0,11.2,0.1,16.8,0c2.5,0,4.9-0.4,7.3-1.2
		c5.3-1.9,8.4-6.1,8.3-11.8C582.6,134.5,580.1,130.6,575.2,128.6z M571.3,145.4c-1.3,0.5-2.6,0.8-4,0.8c-3.3,0-6.5,0-9.8,0
		c-0.1,0-0.3-0.1-0.7-0.3c0-4,0-8,0-11.8c0.6-0.5,1.1-0.4,1.5-0.4c3,0,5.9,0,8.9,0c1.4,0,2.7,0.2,4,0.7c2.3,1,3.6,2.8,3.7,5.4
		C575,142.4,573.7,144.4,571.3,145.4z M533.8,145.9v-17.3c0-2.9,0-5.8,0-8.6c0-2.8,0.1-5.7-0.1-8.6c-1.3,0-2.5,0-3.7,0
		c-1.2,0.1-2.4-0.2-3.6,0.2v2.6c0,9.7,0,19.3,0,29c0,0.9,0.2,1.8-0.3,2.7h-7.4c-2.4,0-4.8,0-7.2,0c-2.4,0-4.9,0.2-7.5-0.2v-2.7
		c0-9.8,0-19.6,0-29.5c0-0.7,0.2-1.4-0.4-2.2c-1.1,0-2.3,0-3.5,0c-1.2,0-2.4-0.1-3.5,0.1c-0.1,0.4-0.1,0.6-0.1,0.8
		c0,13.3,0,26.7,0,40c0,0.1,0,0.2,0.1,0.2c0,0.1,0.1,0.1,0.3,0.4c2.9,0.1,5.9,0,8.9,0c3,0,6.1,0,9.1,0h9.1c3,0,6,0,9.1,0
		c0.3,3.4,0,6.7,0.3,10c2.2,0.1,4.3,0.2,6.6-0.1c0.3-5.7,0.5-11.2,0.8-17H533.8z M519.7,233.3c0-7.6,0-15.2,0-22.8
		c0-1.7-0.1-3.4-0.4-5c-1-6-4.4-10-10.3-11.6c-1.3-0.4-2.7-0.5-4-0.7c-9.1-0.7-16.6,2.5-22.3,9.6c-0.3,0.4-0.8,0.8-0.7,1.6
		c1.4,1.8,3,3.6,4.4,5.4c0.6-0.3,0.7-0.8,1-1.2c4.3-6.6,10.3-9.2,18-8.4c1.4,0.2,2.8,0.6,4,1.4c1.1,0.7,2.1,1.6,2.4,2.9
		c1.1,3.6,0,5.6-2.8,6.6c-1.1,0.4-2.3,0.8-3.4,1c-3,0.7-5.9,1.2-8.9,1.9c-3,0.7-5.8,1.6-8.4,3.3c-4.4,2.8-5.9,7.3-4.5,12.3
		c0.6,2.2,1.9,3.9,3.7,5.2c1.3,0.9,2.8,1.6,4.3,1.9c7,1.4,13.3-0.2,19-4.3c0.3-0.2,0.6-0.8,1.2-0.6c0.3,1.3-0.2,2.7,0.3,4.2
		c2.4,0,4.7,0.1,7-0.1C519.8,234.8,519.7,234,519.7,233.3z M512.1,221.2c-0.4,1.9-1.5,3.3-2.8,4.6c-1.9,1.8-4.3,3-6.8,3.8
		c-2.2,0.7-4.5,0.8-6.9,0.6c-0.5,0-1.1-0.2-1.6-0.4c-1.7-0.5-2.8-1.5-3-3.3c-0.3-2,0.2-3.7,2-4.8c0.8-0.5,1.5-0.8,2.4-1.1
		c1.2-0.4,2.4-0.7,3.7-1c4.4-1,8.9-1.8,13.3-4C512.4,217.8,512.5,219.5,512.1,221.2z M482.4,111.8c0-0.1-0.1-0.1-0.1-0.2
		c0-0.1-0.1-0.1-0.3-0.3c-2.2,0.1-4.6-0.1-6.9,0.1c-7.2,9.7-14.4,19.3-21.5,28.9c-0.1,0.1-0.2,0.3-0.3,0.4c0,0.1-0.1,0.1-0.2,0.2
		c-0.1,0-0.2,0-0.4,0c-0.2-2.4-0.1-4.9-0.1-7.3c0-2.4,0-4.8,0-7.2c0-2.5,0-5,0-7.4c0-2.5,0-4.9,0-7.5c-1.3-0.3-2.5-0.1-3.7-0.1
		c-1.2,0-2.5-0.2-3.8,0.2c0,0.4,0,0.7,0,1c0,13,0,25.9,0,38.9c0,0.4-0.2,1,0.4,1.4h6.9c1.5-2,3-4,4.5-6c1.5-2,3-4,4.4-6
		c1.5-2,3-4,4.5-6c1.5-2,2.9-4,4.4-6c1.5-2,2.8-4,4.7-6.2v15c0,2.5,0,5,0,7.4c0,2.5,0,4.9,0,7.5c2.5,0.3,4.9,0.1,7.6,0.1v-39.6
		C482.4,112.7,482.4,112.3,482.4,111.8z M479.3,233.7c-6.7-6-13.3-12-19.9-18c-0.5-0.4-1.1-0.7-1.2-1.5c2.3-2.2,4.7-4.4,7-6.5
		c2.3-2.2,4.7-4.4,7-6.5c2.3-2.2,4.7-4.2,7-6.8h-9.7c-6.1,5.7-12.2,11.4-18.3,17.1c0,0-0.2,0.1-0.2,0.1c-0.1,0-0.1,0-0.4-0.1
		c0-1,0-2.1-0.1-3.2v-7c0-1.2,0-2.4,0-3.6c0-1.1,0.1-2.2-0.1-3.3H443v1.9c0,13,0,26.1,0,39.1c0,0.1,0,0.2,0.1,0.2
		c0,0.1,0.1,0.1,0.2,0.2c3.3,0.4,5.6,0.3,7.2-0.3v-2.3c0-4.6,0-9.1,0-13.7c0-0.5-0.2-1,0.5-1.4c6.5,5.9,13.1,11.8,19.6,17.7
		c3.9,0.3,8.9,0.2,10.6-0.2C480.5,234.9,479.9,234.3,479.3,233.7z M432.6,219.2c-0.7-2.5-2.1-4.5-4.2-6c-1.3-0.9-2.7-1.6-4.3-2.1
		c-2.3-0.7-4.7-1-7.1-1c-2.8,0-5.6,0-8.4,0c-0.5,0-1,0.1-1.5-0.5v-15.2c-1.3-0.1-2.5-0.1-3.7-0.1c-1.2,0-2.5-0.2-3.7,0.2
		c-0.2,4.6-0.1,39.2,0.1,41.1c0.8,0.3,1.4,0.2,2.1,0.2c4.5,0,9,0,13.4,0c1.8,0,3.7-0.1,5.5-0.3c2.2-0.3,4.4-0.9,6.3-2.1
		c3.1-1.8,5-4.4,5.7-7.9C433.2,223.4,433.2,221.3,432.6,219.2z M421.3,228.5c-1.1,0.5-2.3,0.7-3.5,0.7c-3.3,0-6.7,0-10,0
		c-0.1,0-0.3-0.1-0.4-0.2c-0.3-2-0.3-10,0-12c1.7-0.3,10.9-0.4,12.3-0.1c0.5,0.1,1.1,0.3,1.6,0.5c2.5,0.9,3.9,2.9,3.9,5.4
		C425.3,225.5,423.9,227.5,421.3,228.5z M430.5,111.3c-1.1,0-2.3,0-3.5,0c-1.2,0-2.4-0.1-3.7,0.2c0,2.9,0,5.7,0,8.5
		c0,2.8,0.1,5.7-0.1,8.5c-0.4,0.1-0.6,0.1-0.9,0.1c-6.9,0-13.9,0-20.8,0c-0.1,0-0.2,0-0.2,0c-0.1,0-0.1-0.1-0.3-0.3c0-1,0-2.1,0-3.2
		c0-1.1,0-2.2,0-3.3V118c0-1.1,0-2.2,0-3.3c0-1.1,0.1-2.2-0.1-3.3h-7.3v24.9c0,2.8,0,5.6,0,8.4c0,2.7-0.2,5.4,0.1,8
		c3.2,0.4,5.7,0.3,7.3-0.2V147c0-1.9,0-3.8,0-5.8c0-1.8-0.2-3.6,0.1-5.4c2-0.3,19.9-0.3,22.2,0c0.2,2.8,0,5.5,0.1,8.3
		c0,2.9-0.1,5.7,0.1,8.5c3.1,0.4,5.9,0.3,7.4-0.2c0-0.2,0.1-0.5,0.1-0.7c0-13.1,0-26.2,0-39.3C431,112.1,431,111.7,430.5,111.3z
		 M385.5,218.3c-0.2,0.4-0.3,0.6-0.4,0.7c-1.7,6.2-5.7,9.6-12,10.5c-6.5,0.9-13.4-2.2-15.8-9.5c-0.8-2.5-0.9-5-0.5-7.6
		c0.7-4.6,3.1-8.2,7.3-10.4c5.5-2.9,13.5-2.3,18.3,3.4c0.3,0.4,0.5,0.9,1.2,1.1c1.5-2.1,3.1-4.1,4.5-6.2c-2-2.7-4.5-4.5-7.5-5.7
		c-4-1.6-8.2-2.1-12.5-1.5c-6.4,0.8-11.7,3.8-15.4,9.1c-3.4,4.8-4.6,10.1-3.8,15.9c1.1,7.7,5.2,13.3,12.1,16.7
		c4.3,2.1,8.9,2.5,13.6,1.9c3.4-0.5,6.7-1.7,9.5-3.7c3.8-2.8,6.3-6.4,7.7-11.1C389.7,220.8,387.6,219.6,385.5,218.3z M379.2,111.5
		c-0.2,0-0.4-0.2-0.6-0.2c-2,0-4,0-6,0c-0.1,0-0.3,0.1-0.6,0.3v8.2c0,1.4,0,2.9,0,4.3c0,1.4,0.1,2.8-0.1,4.2
		c-2.7,0.3-20.2,0.2-22.3-0.1c-0.1-1.4,0-2.8,0-4.2c0-1.4,0-2.7,0-4.1c0-1.4,0-2.9,0-4.3c0-1.4,0.1-2.8-0.1-4.4c-2.2,0-4.3,0-6.3,0
		c-0.3,0-0.6,0.1-1,0.2c0,13.5,0,27,0,40.5c0,0.2,0.1,0.5,0.2,0.7c2.1,0.3,5.4,0.3,7.2-0.1v-2.3c0-4.3,0-8.6,0-12.9
		c0-0.5-0.2-1.1,0.4-1.7h19.5c0.6,0,1.3,0,1.9,0.1c0.1,0,0.2,0,0.2,0.1c0.1,0,0.1,0.1,0.3,0.4v2.1c0,4.4,0,8.8,0,13.2
		c0,0.5-0.2,1,0.5,1.4c1.9,0,4,0,6,0c0.2,0,0.4-0.1,0.6-0.2C379.5,150.7,379.5,113.7,379.2,111.5z M333.7,173.6
		c-3,0-5.5,2.5-5.5,5.7c0,3.4,2.9,5.5,5.5,5.5c3.2-0.1,5.7-2.5,5.7-5.6C339.4,176,336.9,173.6,333.7,173.6z M337.5,194.8
		c0-0.1,0-0.1-0.1-0.2c0-0.1-0.1-0.1-0.3-0.3c-2,0-4.1,0-6.3,0c-0.2,0-0.4,0.1-0.6,0.2c-0.3,2.3-0.3,39.3,0,41.3
		c2.3,0.2,4.7,0.1,7.3,0.1v-39.4C337.6,195.9,337.5,195.3,337.5,194.8z M324.1,90.6c-3.1,0-5.4,2.5-5.4,5.8c0.1,3.1,2.5,5.4,5.6,5.3
		c3.2,0,5.6-2.5,5.6-5.7S327.2,90.5,324.1,90.6z M327.9,111.8c0-0.1,0-0.1-0.1-0.2c0-0.1-0.1-0.1-0.3-0.3c-1,0-2.2,0-3.4,0
		c-1.2,0.1-2.4-0.3-3.6,0.3v39.5c0,0.4,0,0.8,0.1,1.2c0,0.1,0.1,0.1,0.1,0.2c0,0.1,0.1,0.1,0.2,0.3h7.1v-2.1
		C328,137.7,327.9,124.7,327.9,111.8z M312,194.3c-2.9,0.1-5.8-0.1-8.8,0.1c-1.3,3.6-2.6,7.1-4,10.6c-1.3,3.4-2.5,6.9-3.8,10.3
		c-1.3,3.5-2.5,7-4.1,10.8c-4.1-10.8-8.1-21.3-12.1-31.7h-8.9c-0.6,4.6-1.1,9.2-1.6,13.8c-0.5,4.6-1,9.2-1.6,13.8
		c-0.8,6.4-1.4,12.2-1.1,13.9c2.2,0,4.4,0.1,6.8-0.1c0.4-5.1,0.9-10.1,1.4-15.1s0.8-10,1.8-15c3.8,10,7.7,20.1,11.6,30.2
		c1.3,0,2.5,0,3.7,0c1.2,0,2.4,0.1,3.6-0.2c3.7-10.2,7.4-20.4,11.1-30.6c0.9,5.1,1.3,10.2,1.8,15.2c0.5,5.1,1,10.2,1.4,15.2
		c2.1,0.4,5.7,0.4,7.4,0C316.4,231.1,312.5,196.1,312,194.3z M308.3,134c-0.4-3.7-2.1-6.7-4.9-9c-0.6-0.5-1.3-0.9-2.1-1.6
		c0.6-0.5,0.9-0.8,1.3-1c2.8-2.2,4.4-5,5-8.4c0.3-1.8,0.3-3.7,0.1-5.5c-0.6-5.1-3.2-8.9-7.9-11.2c-1-0.5-2-0.9-3.1-1.2
		c-3.4-1.1-6.9-1.3-10.4-1.3c-5.8-0.1-11.7,0-17.5,0c-0.5,0-1.1-0.2-1.6,0.2c-0.1,0.1-0.2,0.1-0.2,0.2c0,0.3-0.1,0.6-0.1,1
		c0,18.8,0,37.5,0,56.3c0,0.1,0,0.2,0.1,0.2c0,0.1,0.1,0.1,0.3,0.3c0.6,0,1.4,0.1,2.2,0.1c6,0,12,0,18,0c1.9,0,3.8-0.1,5.7-0.4
		c2.6-0.3,5.2-1,7.5-2.3c3.6-1.9,6.1-4.8,7.1-8.9C308.5,138.9,308.6,136.5,308.3,134z M275.4,102.5c0.3-0.5,0.9-0.3,1.3-0.3
		c3.7,0,7.4,0,11,0c1.9,0,3.7,0.3,5.4,0.9c4.2,1.3,6,4.5,5.8,8.8c-0.2,3.8-2.2,6.2-5.8,7.4c-1.6,0.5-3.3,0.8-4.9,0.8c-4,0-8,0-12,0
		c-0.2,0-0.5-0.1-0.7-0.1C275.2,118.3,275.1,106.2,275.4,102.5z M299,139.9c-0.8,2.1-2.5,3.5-4.5,4.3c-1.6,0.6-3.2,1-4.9,1
		c-4.6,0-9.3,0-13.9,0c-0.1-0.2-0.3-0.3-0.3-0.4c0-5.8,0-11.5,0-17.3c0.4-0.2,0.6-0.3,0.7-0.3c4.9,0,9.7-0.2,14.6,0.2
		c1.7,0.2,3.3,0.6,4.8,1.4c1.9,1,3.2,2.5,3.8,4.7C299.9,135.7,299.8,137.9,299,139.9z M222.3,27.6c0-0.5,0-1,0-1.4
		c0-0.5,0.1-1-0.3-1.3c-2-0.3-208.9-0.3-211,0c-0.4,0.7-0.2,1.4-0.2,2.1c0,47.2,0,94.5,0,141.8c0,6.7,0.7,13.4,1.9,20
		c2.8,15.1,8.4,29.1,16.8,41.9c9.5,14.3,21.6,25.8,36.5,34.4c10,5.7,20.7,9.6,32,11.8c3.1,0.6,6.3,1.2,9.5,1.1c6.1,0,12.2,0,18.2,0
		c1.1,0,2.3,0,3.4-0.2c3.6-0.5,7.3-1.1,10.8-1.9c17.3-4.2,32.6-12.3,45.8-24.3c11.7-10.6,20.7-23.2,27-37.7
		c6.3-14.4,9.6-29.4,9.6-45.1C222.4,121.6,222.3,74.6,222.3,27.6z M57.4,132.9c2.7-9.9,8.2-17.8,16.9-23.2c0.9-0.6,2-1.1,2.9-1.6
		c0.1,0,0.3,0,0.4,0.1c0.2,0.5-0.1,0.9-0.3,1.3c-1.9,5-3.4,10.2-4,15.5c-0.8,6.5-0.7,12.9,1.7,19.1c0.5,1.3,1.2,2.6,1.8,3.9
		c-0.3,0.3-0.7,0.1-1,0c-3.2-0.9-5.7-2.8-7.6-5.5c-1-1.4-1.7-2.8-2.4-4.5c-0.2,1.8,0.1,3.9,0.9,6.2c2.1,5.8,6.3,9.3,13.2,9.8
		c5.2,0.4,9.9-1.2,14.1-4.3c4.9-3.6,8.4-8.3,10.6-13.9c0.9-2.2,1.3-4.4,1.2-6.8c-0.1-2.9-0.1-5.8-0.1-8.6c0-2.6-0.2-5.3-0.2-7.9
		c0.1-8.3,0.2-16.6,0.3-24.9c0-1,0-2.1,0-3c-0.5-0.7-1.1-0.5-1.7-0.5c-4.7,0-9.4,0-14.2,0h-2.4c-0.5-1.3-0.2-2.6-0.3-3.8
		c-0.1-1.3,0-2.6,0-3.8V64.7h18c0.7-0.6,0.5-1.2,0.5-1.7c0-4.5,0-9.1,0-13.7V47c1.7-0.4,15.9-0.6,20.4-0.2c0.5,0.4,0.3,1,0.3,1.5
		c0,4.6,0,9.1,0,13.7v2.2c0.5,0.7,1.1,0.5,1.7,0.5c4.7,0,9.4,0,14.2,0c0.8,0,1.6-0.2,2.3,0.2c0.3,2.1,0.3,16.7,0,19
		c-1.5,0.1-3,0-4.5,0.1c-1.5,0-3,0-4.6,0h-8.7c-0.6,0.7-0.4,1.4-0.4,2c0,9.5,0.1,19,0.1,28.5c0,4.6,0,9.3-0.1,13.9
		c-0.1,3.2,0.5,6.2,1.9,9c3,6.2,7.3,11.3,13.5,14.4c4.2,2.1,8.7,2.7,13.3,1.7c4.3-0.9,7.4-3.3,9.4-7.1c1.3-2.6,1.9-5.4,2.2-8.5
		c-0.7,0.6-0.8,1.2-1.1,1.7c-1.1,2.3-2.6,4.4-4.6,6c-1.6,1.3-3.5,2.2-5.4,2.5c-0.3-0.2-0.3-0.3-0.2-0.5c2.6-4.5,3.6-9.5,3.8-14.7
		c0.3-7.5-1.3-14.8-3.8-21.8c-0.3-1-0.7-2-1-2.9c0.4-0.5,0.7-0.1,1,0c3.6,1.7,6.7,4.1,9.4,6.9c6,6.1,9.7,13.5,10.8,22
		c0.6,4.3,0.4,8.6-1,12.8c-2.3,7-7,11.9-13.6,15c-4.5,2.1-9.3,3.2-14.3,3.5c-2.2,0.2-4.4,0.2-6.7,0c-10.8-1-18.5-6.3-23-16.3
		c-0.3-0.6-0.5-1.2-0.8-1.8c0-0.1-0.1-0.1-0.2-0.2c-0.5,0.4-0.6,1-0.8,1.6c-1.4,3.2-3.1,6.1-5.5,8.6c-3.8,4-8.5,6.5-13.9,7.5
		c-8.3,1.5-16.4,0.5-24.1-2.8c-7.5-3.2-12.5-8.7-14.7-16.6C55.8,143.3,56,138.1,57.4,132.9z M189.3,153.4c-0.4,0.7-0.9,1.3-1.3,2
		c-8.1,11.6-17.2,22.3-27.6,31.8c-8.7,8-18,15-28.2,21c-0.7,0.4-1.3,0.8-2,1.3c2.5,1.2,10.2,2.9,13.8,3.1c0.4-0.5,0.2-1.1,0.2-1.6
		c0.4-2.3,1.3-4.3,3.1-5.8c2-1.7,4.3-2,6.7-1.2c2.4,0.9,3.3,3.9,1.9,6c-0.8,1.2-2,1.6-3.3,1.5c-1.7-0.2-2.2-0.9-1.9-2.8
		c0-0.2,0.2-0.4-0.1-0.7c-1.7,1.4-1.7,3.3-1.5,5.3c1.9,0.1,3.8,0,5.6-0.1c3.5-0.1,7-0.2,10.5,0c1.8,0.1,3.5,0.2,5.3,0.2
		c1.5,0,2.8,0.4,4.2,0.9c3.6,1.5,5,4.9,4,8.7c-0.7,2.7-4.2,4-6.6,2.7c-1-0.6-1.7-1.4-1.8-2.6c-0.1-0.7,0-1.4,0-2.1
		c-0.8-0.2-1.1,0.4-1.5,0.7c-2.3,1.3-4.7,2-7.3,2.2c-0.6,0-1.3-0.1-1.9-0.2c-0.7-0.1-1.4-0.3-2.1-0.4c-2.4-0.6-4.6-0.3-6.3,1.9
		c-0.2,0.7,0,1.4,0.1,2.1c0.2,1.7,0.3,3.3-0.3,5c-1,2.9-3.7,4.6-6.7,4.3c-3-0.3-4.9-3.5-3.6-6.2c0.8-1.7,2.2-2.2,3.9-1.9
		c1.5,0.7,0.9,2.1,1.3,3.4c1.1-2.3,0.6-4.5,0.3-6.8c-1.9-0.6-4-0.6-6-1.1c-2-0.5-4.1-0.9-6.1-1.4c-2.1-0.5-4.1-1.2-6.2-1.8
		c-2-0.6-3.9-1.3-5.9-2c-2-0.7-3.9-1.5-5.8-2.3c-4.8,2-9.6,3.8-14.6,5.2c-5,1.4-10,2.6-15.1,3.2c-0.9,3.2-0.9,4.8,0.2,6.9
		c0-0.8,0-1.4,0.1-2c0.2-0.9,0.8-1.4,1.7-1.4c1.9-0.1,3.4,1.2,3.6,3.1c0.3,3-1.5,5.1-4.6,5.2c-3.5,0-6.2-2.6-6.4-6.4
		c-0.1-1.6,0.2-3.2,0.4-4.7c-1.5-2.2-3.5-2.7-5.9-2.3c-0.2,0-0.5,0.1-0.7,0.2c-3.9,1.2-7.6,0.3-11-1.6c-0.4-0.2-0.8-0.5-1.4-0.9
		c-0.2,0.6-0.1,1.3-0.2,1.8c-0.2,2.2-1.7,3.7-4,3.7c-2.1,0-4.1-1.4-4.7-3.5c-1-3.4,0.7-7.1,4-8.5c1.4-0.6,2.9-0.9,4.4-0.9
		c6.1-0.3,12.1-0.6,18.2-0.1c0.9,0.1,1.9,0,2.8,0c0.5-2.6,0.3-3.6-1.3-5.3c-0.3,0.3,0,0.5,0,0.8c0.3,1.6-0.2,2.3-1.7,2.6
		c-2.8,0.5-4.5-1.7-4.3-4.1c0.2-1.5,1-2.7,2.5-3.3c2.5-0.9,4.9-0.6,6.9,1.3c1.7,1.6,2.7,3.5,3,5.8c0.1,0.5,0.1,0.9,0.1,1.5
		c4.8-0.6,9.3-1.6,14.1-3c-0.9-0.6-1.6-1.1-2.2-1.5c-7.6-4.4-14.7-9.4-21.4-15c-11.9-9.8-22.2-21.1-31.4-33.5
		c-1.4-1.9-2.7-3.8-4-5.7c-1.3-2-1.7-4.1-0.8-6.4c0.2-0.6,0.5-1.2,1.2-1.4c0.4,0.1,0.7,0.4,0.9,0.7c5.5,6.3,11,12.4,16.9,18.3
		c11.6,11.7,23.9,22.4,38,30.9c5.3,3.2,10.7,6,16.5,8.5c9.7-4.2,18.6-9.4,27-15.5c8.9-6.4,17.1-13.7,24.9-21.4
		c6.7-6.6,13-13.4,19.2-20.5c0.4-0.4,0.6-0.9,1.2-1.1c0.7,0.1,0.9,0.6,1.1,1.1C190.5,149.5,190.3,151.5,189.3,153.4z"/>
	<path fill="#C62122" d="M222.3,27.6c0-0.5,0-1,0-1.4c0-0.5,0.1-1-0.3-1.3c-2-0.3-208.9-0.3-211,0c-0.4,0.7-0.2,1.4-0.2,2.1
		c0,47.2,0,94.5,0,141.8c0,6.7,0.7,13.4,1.9,20c2.8,15.1,8.4,29.1,16.8,41.9c9.5,14.3,21.6,25.8,36.5,34.4c10,5.7,20.7,9.6,32,11.8
		c3.1,0.6,6.3,1.2,9.5,1.1c6.1,0,12.2,0,18.2,0c1.1,0,2.3,0,3.4-0.2c3.6-0.5,7.3-1.1,10.8-1.9c17.3-4.2,32.6-12.3,45.8-24.3
		c11.7-10.6,20.7-23.2,27-37.7c6.3-14.4,9.6-29.4,9.6-45.1C222.4,121.6,222.3,74.6,222.3,27.6z M57.4,132.9
		c2.7-9.9,8.2-17.8,16.9-23.2c0.9-0.6,2-1.1,2.9-1.6c0.1,0,0.3,0,0.4,0.1c0.2,0.5-0.1,0.9-0.3,1.3c-1.9,5-3.4,10.2-4,15.5
		c-0.8,6.5-0.7,12.9,1.7,19.1c0.5,1.3,1.2,2.6,1.8,3.9c-0.3,0.3-0.7,0.1-1,0c-3.2-0.9-5.7-2.8-7.6-5.5c-1-1.4-1.7-2.8-2.4-4.5
		c-0.2,1.8,0.1,3.9,0.9,6.2c2.1,5.8,6.3,9.3,13.2,9.8c5.2,0.4,9.9-1.2,14.1-4.3c4.9-3.6,8.4-8.3,10.6-13.9c0.9-2.2,1.3-4.4,1.2-6.8
		c-0.1-2.9-0.1-5.8-0.1-8.6c0-2.6-0.2-5.3-0.2-7.9c0.1-8.3,0.2-16.6,0.3-24.9c0-1,0-2.1,0-3c-0.5-0.7-1.1-0.5-1.7-0.5
		c-4.7,0-9.4,0-14.2,0h-2.4c-0.5-1.3-0.2-2.6-0.3-3.8c-0.1-1.3,0-2.6,0-3.8V64.7h18c0.7-0.6,0.5-1.2,0.5-1.7c0-4.5,0-9.1,0-13.7V47
		c1.7-0.4,15.9-0.6,20.4-0.2c0.5,0.4,0.3,1,0.3,1.5c0,4.6,0,9.1,0,13.7v2.2c0.5,0.7,1.1,0.5,1.7,0.5c4.7,0,9.4,0,14.2,0
		c0.8,0,1.6-0.2,2.3,0.2c0.3,2.1,0.3,16.7,0,19c-1.5,0.1-3,0-4.5,0.1c-1.5,0-3,0-4.6,0h-8.7c-0.6,0.7-0.4,1.4-0.4,2
		c0,9.5,0.1,19,0.1,28.5c0,4.6,0,9.3-0.1,13.9c-0.1,3.2,0.5,6.2,1.9,9c3,6.2,7.3,11.3,13.5,14.4c4.2,2.1,8.7,2.7,13.3,1.7
		c4.3-0.9,7.4-3.3,9.4-7.1c1.3-2.6,1.9-5.4,2.2-8.5c-0.7,0.6-0.8,1.2-1.1,1.7c-1.1,2.3-2.6,4.4-4.6,6c-1.6,1.3-3.5,2.2-5.4,2.5
		c-0.3-0.2-0.3-0.3-0.2-0.5c2.6-4.5,3.6-9.5,3.8-14.7c0.3-7.5-1.3-14.8-3.8-21.8c-0.3-1-0.7-2-1-2.9c0.4-0.5,0.7-0.1,1,0
		c3.6,1.7,6.7,4.1,9.4,6.9c6,6.1,9.7,13.5,10.8,22c0.6,4.3,0.4,8.6-1,12.8c-2.3,7-7,11.9-13.6,15c-4.5,2.1-9.3,3.2-14.3,3.5
		c-2.2,0.2-4.4,0.2-6.7,0c-10.8-1-18.5-6.3-23-16.3c-0.3-0.6-0.5-1.2-0.8-1.8c0-0.1-0.1-0.1-0.2-0.2c-0.5,0.4-0.6,1-0.8,1.6
		c-1.4,3.2-3.1,6.1-5.5,8.6c-3.8,4-8.5,6.5-13.9,7.5c-8.3,1.5-16.4,0.5-24.1-2.8c-7.5-3.2-12.5-8.7-14.7-16.6
		C55.8,143.3,56,138.1,57.4,132.9z M189.3,153.4c-0.4,0.7-0.9,1.3-1.3,2c-8.1,11.6-17.2,22.3-27.6,31.8c-8.7,8-18,15-28.2,21
		c-0.7,0.4-1.3,0.8-2,1.3c2.5,1.2,10.2,2.9,13.8,3.1c0.4-0.5,0.2-1.1,0.2-1.6c0.4-2.3,1.3-4.3,3.1-5.8c2-1.7,4.3-2,6.7-1.2
		c2.4,0.9,3.3,3.9,1.9,6c-0.8,1.2-2,1.6-3.3,1.5c-1.7-0.2-2.2-0.9-1.9-2.8c0-0.2,0.2-0.4-0.1-0.7c-1.7,1.4-1.7,3.3-1.5,5.3
		c1.9,0.1,3.8,0,5.6-0.1c3.5-0.1,7-0.2,10.5,0c1.8,0.1,3.5,0.2,5.3,0.2c1.5,0,2.8,0.4,4.2,0.9c3.6,1.5,5,4.9,4,8.7
		c-0.7,2.7-4.2,4-6.6,2.7c-1-0.6-1.7-1.4-1.8-2.6c-0.1-0.7,0-1.4,0-2.1c-0.8-0.2-1.1,0.4-1.5,0.7c-2.3,1.3-4.7,2-7.3,2.2
		c-0.6,0-1.3-0.1-1.9-0.2c-0.7-0.1-1.4-0.3-2.1-0.4c-2.4-0.6-4.6-0.3-6.3,1.9c-0.2,0.7,0,1.4,0.1,2.1c0.2,1.7,0.3,3.3-0.3,5
		c-1,2.9-3.7,4.6-6.7,4.3c-3-0.3-4.9-3.5-3.6-6.2c0.8-1.7,2.2-2.2,3.9-1.9c1.5,0.7,0.9,2.1,1.3,3.4c1.1-2.3,0.6-4.5,0.3-6.8
		c-1.9-0.6-4-0.6-6-1.1c-2-0.5-4.1-0.9-6.1-1.4c-2.1-0.5-4.1-1.2-6.2-1.8c-2-0.6-3.9-1.3-5.9-2c-2-0.7-3.9-1.5-5.8-2.3
		c-4.8,2-9.6,3.8-14.6,5.2c-5,1.4-10,2.6-15.1,3.2c-0.9,3.2-0.9,4.8,0.2,6.9c0-0.8,0-1.4,0.1-2c0.2-0.9,0.8-1.4,1.7-1.4
		c1.9-0.1,3.4,1.2,3.6,3.1c0.3,3-1.5,5.1-4.6,5.2c-3.5,0-6.2-2.6-6.4-6.4c-0.1-1.6,0.2-3.2,0.4-4.7c-1.5-2.2-3.5-2.7-5.9-2.3
		c-0.2,0-0.5,0.1-0.7,0.2c-3.9,1.2-7.6,0.3-11-1.6c-0.4-0.2-0.8-0.5-1.4-0.9c-0.2,0.6-0.1,1.3-0.2,1.8c-0.2,2.2-1.7,3.7-4,3.7
		c-2.1,0-4.1-1.4-4.7-3.5c-1-3.4,0.7-7.1,4-8.5c1.4-0.6,2.9-0.9,4.4-0.9c6.1-0.3,12.1-0.6,18.2-0.1c0.9,0.1,1.9,0,2.8,0
		c0.5-2.6,0.3-3.6-1.3-5.3c-0.3,0.3,0,0.5,0,0.8c0.3,1.6-0.2,2.3-1.7,2.6c-2.8,0.5-4.5-1.7-4.3-4.1c0.2-1.5,1-2.7,2.5-3.3
		c2.5-0.9,4.9-0.6,6.9,1.3c1.7,1.6,2.7,3.5,3,5.8c0.1,0.5,0.1,0.9,0.1,1.5c4.8-0.6,9.3-1.6,14.1-3c-0.9-0.6-1.6-1.1-2.2-1.5
		c-7.6-4.4-14.7-9.4-21.4-15c-11.9-9.8-22.2-21.1-31.4-33.5c-1.4-1.9-2.7-3.8-4-5.7c-1.3-2-1.7-4.1-0.8-6.4c0.2-0.6,0.5-1.2,1.2-1.4
		c0.4,0.1,0.7,0.4,0.9,0.7c5.5,6.3,11,12.4,16.9,18.3c11.6,11.7,23.9,22.4,38,30.9c5.3,3.2,10.7,6,16.5,8.5
		c9.7-4.2,18.6-9.4,27-15.5c8.9-6.4,17.1-13.7,24.9-21.4c6.7-6.6,13-13.4,19.2-20.5c0.4-0.4,0.6-0.9,1.2-1.1
		c0.7,0.1,0.9,0.6,1.1,1.1C190.5,149.5,190.3,151.5,189.3,153.4z"/>
	<path d="M308.3,134c-0.4-3.7-2.1-6.7-4.9-9c-0.6-0.5-1.3-0.9-2.1-1.6c0.6-0.5,0.9-0.8,1.3-1c2.8-2.2,4.4-5,5-8.4
		c0.3-1.8,0.3-3.7,0.1-5.5c-0.6-5.1-3.2-8.9-7.9-11.2c-1-0.5-2-0.9-3.1-1.2c-3.4-1.1-6.9-1.3-10.4-1.3c-5.8-0.1-11.7,0-17.5,0
		c-0.5,0-1.1-0.2-1.6,0.2c-0.1,0.1-0.2,0.1-0.2,0.2c0,0.3-0.1,0.6-0.1,1c0,18.8,0,37.5,0,56.3c0,0.1,0,0.2,0.1,0.2
		c0,0.1,0.1,0.1,0.3,0.3c0.6,0,1.4,0.1,2.2,0.1c6,0,12,0,18,0c1.9,0,3.8-0.1,5.7-0.4c2.6-0.3,5.2-1,7.5-2.3c3.6-1.9,6.1-4.8,7.1-8.9
		C308.5,138.9,308.6,136.5,308.3,134z M275.4,102.5c0.3-0.5,0.9-0.3,1.3-0.3c3.7,0,7.4,0,11,0c1.9,0,3.7,0.3,5.4,0.9
		c4.2,1.3,6,4.5,5.8,8.8c-0.2,3.8-2.2,6.2-5.8,7.4c-1.6,0.5-3.3,0.8-4.9,0.8c-4,0-8,0-12,0c-0.2,0-0.5-0.1-0.7-0.1
		C275.2,118.3,275.1,106.2,275.4,102.5z M299,139.9c-0.8,2.1-2.5,3.5-4.5,4.3c-1.6,0.6-3.2,1-4.9,1c-4.6,0-9.3,0-13.9,0
		c-0.1-0.2-0.3-0.3-0.3-0.4c0-5.8,0-11.5,0-17.3c0.4-0.2,0.6-0.3,0.7-0.3c4.9,0,9.7-0.2,14.6,0.2c1.7,0.2,3.3,0.6,4.8,1.4
		c1.9,1,3.2,2.5,3.8,4.7C299.9,135.7,299.8,137.9,299,139.9z"/>
	<path d="M697.1,228.8h-6.7V208c0-2.2,0-4.5,0-6.7c0-2.3,0.2-4.6-0.1-7h-10.8c-3.7,0-7.3,0-11,0c-3.6,0-7.1-0.1-10.8,0.1v1.8
		c0,4.2,0,8.5,0,12.7c0,4.3,0.1,8.6-0.5,12.9c-0.2,1.6-0.5,3.2-1.1,4.6c-0.7,1.6-1.8,2.6-3.7,2.4c-0.9-0.1-1.7,0-3,0
		c0.3,3,0.5,5.8,0.8,8.5c0.3,2.8,0.4,5.7,1,8.6c1.1,0,2.1,0,3.2,0c1.1-0.1,2.2,0.3,3.3-0.3c0-2.4-0.1-4.7-0.3-7
		c-0.1-0.9-0.3-1.9,0.2-2.8h30.7c0.4,0,0.8,0,1.2,0c0.1,0,0.1,0,0.2,0.1c0.1,0,0.1,0.1,0.3,0.3c0,1.4,0,3,0,4.6c0,1.6-0.2,3.3,0.2,5
		c2.2,0.1,4.2,0.2,6.3-0.1c0.5-2.8,0.5-5.6,0.5-8.4C696.9,234.6,697.5,231.8,697.1,228.8z M682.8,228.7c-3,0.2-18.2,0.2-20.1,0
		c0.4-1.4,0.7-2.8,1-4.2c1-4.6,1.1-9.3,1.2-14c0.1-2.4,0-4.8,0-7.2c0-0.5-0.1-1.1,0.2-1.6c1.8-0.3,15.3-0.4,17.6,0
		C683,203.4,683,225.7,682.8,228.7z"/>
	<path d="M595.3,206.6c-4.8-13.6-21.8-17.9-31.9-8.6c-0.2,0.2-0.4,0.5-0.8,0.3c-0.4-1.3,0.2-2.7-0.4-4c-1.2,0-2.4,0-3.6,0
		c-1.2,0-2.4-0.2-3.7,0.2v1.3c0,20.1,0,40.3,0.1,60.4c0,0.1,0,0.1,0.1,0.2c0,0.1,0.1,0.1,0.3,0.2h7.2c0-1.5,0-2.9,0-4.2v-12.5
		c0-1.4,0-2.7,0-4.1c0-1.3-0.1-2.7,0.1-4c0.8,0,1.1,0.6,1.5,0.9c8.7,7.3,21.8,5,28.1-3.5C597.3,222.3,598.1,214.6,595.3,206.6z
		 M586.1,224.4c-5.1,7.3-16.8,7.3-21.6-0.8c-3.2-5.4-3.3-11.1-0.3-16.6c2.5-4.5,6.5-6.7,11.7-6.5c5,0.1,8.8,2.5,11.2,6.9
		c1.3,2.4,1.8,4.8,1.8,7.8C588.9,218.5,588.1,221.6,586.1,224.4z"/>
	<path d="M316.7,235.5c-1.6,0.4-5.3,0.4-7.4,0c-0.5-5-1-10.1-1.4-15.2c-0.5-5.1-0.9-10.2-1.8-15.2c-3.7,10.2-7.4,20.3-11.1,30.6
		c-1.2,0.3-2.4,0.1-3.6,0.2c-1.2,0-2.4,0-3.7,0c-3.9-10.1-7.7-20.2-11.6-30.2c-1,5-1.3,10-1.8,15s-0.9,10-1.4,15.1
		c-2.4,0.1-4.7,0.1-6.8,0.1c-0.3-1.7,0.3-7.5,1.1-13.9c0.6-4.6,1.1-9.2,1.6-13.8c0.5-4.6,0.9-9.2,1.6-13.8h8.9
		c4,10.4,8,20.9,12.1,31.7c1.6-3.7,2.8-7.3,4.1-10.8c1.3-3.4,2.5-6.9,3.8-10.3c1.3-3.5,2.6-7,4-10.6c3-0.2,5.9,0,8.8-0.1
		C312.5,196.1,316.4,231.1,316.7,235.5z"/>
	<path d="M519.7,233.3c0-7.6,0-15.2,0-22.8c0-1.7-0.1-3.4-0.4-5c-1-6-4.4-10-10.3-11.6c-1.3-0.4-2.7-0.5-4-0.7
		c-9.1-0.7-16.6,2.5-22.3,9.6c-0.3,0.4-0.8,0.8-0.7,1.6c1.4,1.8,3,3.6,4.4,5.4c0.6-0.3,0.7-0.8,1-1.2c4.3-6.6,10.3-9.2,18-8.4
		c1.4,0.2,2.8,0.6,4,1.4c1.1,0.7,2.1,1.6,2.4,2.9c1.1,3.6,0,5.6-2.8,6.6c-1.1,0.4-2.3,0.8-3.4,1c-3,0.7-5.9,1.2-8.9,1.9
		c-3,0.7-5.8,1.6-8.4,3.3c-4.4,2.8-5.9,7.3-4.5,12.3c0.6,2.2,1.9,3.9,3.7,5.2c1.3,0.9,2.8,1.6,4.3,1.9c7,1.4,13.3-0.2,19-4.3
		c0.3-0.2,0.6-0.8,1.2-0.6c0.3,1.3-0.2,2.7,0.3,4.2c2.4,0,4.7,0.1,7-0.1C519.8,234.8,519.7,234,519.7,233.3z M512.1,221.2
		c-0.4,1.9-1.5,3.3-2.8,4.6c-1.9,1.8-4.3,3-6.8,3.8c-2.2,0.7-4.5,0.8-6.9,0.6c-0.5,0-1.1-0.2-1.6-0.4c-1.7-0.5-2.8-1.5-3-3.3
		c-0.3-2,0.2-3.7,2-4.8c0.8-0.5,1.5-0.8,2.4-1.1c1.2-0.4,2.4-0.7,3.7-1c4.4-1,8.9-1.8,13.3-4C512.4,217.8,512.5,219.5,512.1,221.2z"
		/>
	<path d="M669.4,151c0-8.1,0-16.1,0-24.2c0-1.7-0.2-3.4-0.5-5c-1.1-5.4-4.2-9-9.5-10.8c-1.5-0.5-3.1-0.7-4.7-0.9
		c-9-0.7-16.4,2.4-22.2,9.4c-0.4,0.5-0.9,0.9-0.9,1.7c1.5,1.8,3,3.6,4.4,5.4c0.6-0.3,0.7-0.6,0.9-1c4.1-6.5,10-9.3,17.7-8.7
		c1.3,0.1,2.5,0.5,3.7,1c1,0.5,1.9,1.2,2.6,2.1c2.2,3,1.2,6.7-2.3,8c-1,0.4-2.1,0.7-3.2,0.9c-3,0.7-6.1,1.3-9.1,2
		c-3.1,0.7-6.2,1.7-8.8,3.6c-3.6,2.5-4.9,6-4.3,10.2c0.5,4.1,3,6.8,6.8,8.2c0.5,0.2,1.1,0.4,1.6,0.5c7,1.4,13.3-0.2,19-4.3
		c0.4-0.3,0.6-0.8,1.2-0.6c0.3,1.3-0.1,2.7,0.3,4.1c2.4,0,4.8,0.1,7.1-0.1C669.5,152.1,669.4,151.5,669.4,151z M662,136.1
		c0,0.6-0.1,1.3-0.2,1.9c-0.3,1.6-1.1,3-2.2,4.2c-2.9,3.1-6.6,4.6-10.8,5.1c-1,0.1-2.1,0-3.1,0c-0.8,0-1.6-0.2-2.3-0.5
		c-3.4-1-3.5-6-1.2-7.6c0.9-0.6,1.9-1.2,3-1.5c1.6-0.5,3.2-0.9,4.9-1.3c2-0.5,4-1,6-1.4c1.9-0.5,3.8-1.3,5.9-2.2
		C662.1,134.1,662,135.1,662,136.1z"/>
	<path d="M641.2,206.5c-0.8-7.3-5-11.5-11-12.8c-6.8-1.5-13.2-0.5-19.1,3.1c-3,1.8-5.6,4.2-7.6,7.3c0.8,1,1.5,1.9,2.3,2.8
		c0.8,1,1.5,2,2.5,2.8c0.2-0.2,0.3-0.2,0.3-0.3c0.1-0.2,0.3-0.4,0.4-0.6c4.1-6.7,10.1-9.5,17.8-8.7c2.1,0.2,4.1,0.9,5.6,2.4
		c2.9,3,2,7.2-1.8,8.7c-1.7,0.6-3.5,1-5.3,1.4c-2.9,0.6-5.8,1.2-8.6,1.9c-2.4,0.6-4.7,1.5-6.8,2.9c-3,2-4.7,4.8-4.7,8.4
		c-0.1,5.4,2.6,8.6,6.8,10.2c1.2,0.5,2.4,0.8,3.7,0.9c6.3,0.5,12-0.9,17.1-4.7c0.3-0.2,0.5-0.7,1-0.4c0.5,1.3-0.2,2.7,0.4,4h7.1
		c0-0.6,0.1-1,0.1-1.4c0-8.5,0-16.9,0-25.4C641.3,208.1,641.2,207.3,641.2,206.5z M629.2,227.3c-3.7,2.4-7.7,3.4-12.1,3
		c-0.6-0.1-1.3-0.2-1.8-0.5c-3.2-1.2-3.8-5.4-1.2-7.6c0.9-0.7,1.9-1.2,3-1.5c1.9-0.6,3.8-1,5.8-1.5c3.5-0.8,7-1.6,10.2-3.2
		c0.2-0.1,0.5-0.1,0.7-0.1C634.8,220.7,633.3,224.5,629.2,227.3z"/>
	<path d="M540.7,145.9c-0.3,5.7-0.5,11.3-0.8,17c-2.3,0.3-4.3,0.2-6.6,0.1c-0.3-3.4,0.1-6.6-0.3-10c-3.1,0-6.1,0-9.1,0h-9.1
		c-3,0-6.1,0-9.1,0c-3,0-6,0-8.9,0c-0.2-0.2-0.3-0.3-0.3-0.4c0-0.1-0.1-0.2-0.1-0.2c0-13.3,0-26.7,0-40c0-0.2,0.1-0.4,0.1-0.8
		c1.2-0.2,2.4-0.1,3.5-0.1c1.2,0,2.4,0,3.5,0c0.6,0.7,0.4,1.5,0.4,2.2c0,9.8,0,19.7,0,29.5v2.7c2.6,0.3,5,0.1,7.5,0.2
		c2.4,0,4.8,0,7.2,0h7.4c0.6-0.9,0.3-1.8,0.3-2.7c0-9.7,0-19.3,0-29v-2.6c1.3-0.5,2.5-0.2,3.6-0.2c1.2,0,2.4,0,3.7,0
		c0.3,3,0.1,5.8,0.1,8.6c0,2.9,0,5.8,0,8.6v17.3H540.7z"/>
	<path d="M739.3,208.9c0-1.1-0.1-2.2-0.3-3.3c-0.8-5.3-3.5-9.2-8.6-11.2c-1.9-0.7-3.8-1.1-5.8-1.2c-9.3-0.6-16.8,2.7-22.6,10.1
		c-0.2,0.2-0.3,0.5-0.5,0.9c1.5,1.9,3,3.7,4.6,5.6c0.3-0.2,0.3-0.3,0.4-0.3c0.2-0.3,0.3-0.5,0.5-0.8c4.2-6.6,10.3-9.3,18-8.5
		c1.4,0.1,2.8,0.6,4.1,1.4c1.2,0.7,2.2,1.7,2.6,3c1,3.6-0.1,5.6-2.9,6.6c-0.6,0.2-1.2,0.4-1.8,0.6c-2.8,0.6-5.6,1.3-8.4,1.9
		c-3.4,0.7-6.9,1.6-9.9,3.4c-3.9,2.3-5.8,5.6-5.5,10.1c0.2,3.6,1.8,6.4,5,8.2c1.7,1,3.5,1.6,5.4,1.7c6.4,0.6,12.2-0.9,17.3-4.9
		c0.3-0.2,0.5-0.6,1-0.3c0.3,1.3-0.2,2.7,0.3,4c3.4,0.4,5.7,0.3,7.2-0.2c0-0.4,0.1-0.8,0.1-1.1C739.3,225.8,739.3,217.4,739.3,208.9
		z M731.9,220.4c-0.1,1.8-1,3.3-2.2,4.7c-1.8,2-4,3.3-6.5,4.3c-2.5,0.9-5.1,1.2-7.8,1c-0.6-0.1-1.3-0.2-1.9-0.4
		c-1.7-0.5-2.7-1.6-3-3.4c-0.3-1.9,0.2-3.5,1.8-4.6c1.2-0.8,2.5-1.3,3.9-1.7c1.7-0.5,3.4-0.8,5.1-1.2c1.8-0.4,3.6-0.8,5.3-1.4
		c1.6-0.5,3.3-1.2,5.1-1.9C731.9,217.5,732,218.9,731.9,220.4z"/>
	<path d="M482.4,113.2v39.6c-2.7,0-5,0.1-7.6-0.1c0-2.6,0-5,0-7.5c0-2.5,0-4.9,0-7.4v-15c-1.9,2.2-3.3,4.2-4.7,6.2c-1.5,2-3,4-4.4,6
		c-1.5,2-3,4-4.5,6c-1.5,2-3,4-4.4,6c-1.5,2-3,4-4.5,6h-6.9c-0.6-0.4-0.4-0.9-0.4-1.4c0-13,0-25.9,0-38.9c0-0.3,0-0.6,0-1
		c1.2-0.4,2.5-0.2,3.8-0.2c1.2,0,2.4-0.1,3.7,0.1c0.1,2.5,0,5,0,7.5c0,2.5,0,5,0,7.4c0,2.4,0,4.8,0,7.2c0,2.4-0.1,4.9,0.1,7.3
		c0.2,0,0.3,0,0.4,0c0.1,0,0.1-0.1,0.2-0.2c0.1-0.1,0.2-0.2,0.3-0.4c7.2-9.6,14.3-19.2,21.5-28.9c2.3-0.3,4.7,0,6.9-0.1
		c0.2,0.2,0.3,0.3,0.3,0.3c0,0.1,0.1,0.1,0.1,0.2C482.4,112.3,482.4,112.7,482.4,113.2z"/>
	<path d="M431,112.5c0,13.1,0,26.2,0,39.3c0,0.2,0,0.5-0.1,0.7c-1.5,0.5-4.3,0.6-7.4,0.2c-0.2-2.8,0-5.7-0.1-8.5
		c-0.1-2.8,0.1-5.5-0.1-8.3c-2.2-0.3-20.2-0.3-22.2,0c-0.3,1.8-0.1,3.6-0.1,5.4c0,1.9,0,3.8,0,5.8v5.5c-1.5,0.5-4.1,0.6-7.3,0.2
		c-0.3-2.7-0.1-5.4-0.1-8c0-2.8,0-5.6,0-8.4v-24.9h7.3c0.2,1.1,0.1,2.2,0.1,3.3c0,1.1,0,2.2,0,3.3v3.6c0,1.1,0,2.2,0,3.3
		c0,1.1,0,2.2,0,3.2c0.2,0.2,0.3,0.3,0.3,0.3c0.1,0,0.1,0,0.2,0c7,0,13.9,0,20.8,0c0.2,0,0.5-0.1,0.9-0.1c0.2-2.8,0.1-5.7,0.1-8.5
		c0-2.8,0-5.6,0-8.5c1.3-0.3,2.5-0.1,3.7-0.2c1.2,0,2.4,0,3.5,0C431,111.7,431,112.1,431,112.5z"/>
	<path d="M379.2,152.7c-0.2,0.1-0.4,0.2-0.6,0.2c-2.1,0-4.1,0-6,0c-0.7-0.4-0.5-1-0.5-1.4c0-4.4,0-8.8,0-13.2v-2.1
		c-0.2-0.3-0.3-0.3-0.3-0.4c-0.1,0-0.2-0.1-0.2-0.1c-0.6,0-1.3-0.1-1.9-0.1H350c-0.6,0.5-0.4,1.1-0.4,1.7c0,4.3,0,8.6,0,12.9v2.3
		c-1.8,0.4-5.2,0.4-7.2,0.1c-0.1-0.2-0.2-0.4-0.2-0.7c0-13.5,0-27,0-40.5c0.4-0.1,0.7-0.2,1-0.2c2.1,0,4.1,0,6.3,0
		c0.1,1.6,0.1,3,0.1,4.4c0,1.4,0,2.9,0,4.3c0,1.3,0,2.7,0,4.1c0,1.4-0.1,2.8,0,4.2c2.1,0.3,19.6,0.3,22.3,0.1
		c0.2-1.4,0.1-2.8,0.1-4.2c0-1.4,0-2.9,0-4.3v-8.2c0.3-0.2,0.4-0.3,0.6-0.3c2,0,4,0,6,0c0.2,0,0.4,0.1,0.6,0.2
		C379.5,113.7,379.5,150.7,379.2,152.7z"/>
	<path d="M631.3,152.9c-3.7,0-6.9,0-10.1,0c-0.8,0-1.3-0.5-1.9-0.9c-2-1.8-4-3.6-6-5.5c-3.9-3.5-7.8-7.1-11.8-10.6
		c-0.3-0.3-0.6-0.5-0.9-0.7c-0.7,0.3-0.4,0.8-0.5,1.3c0,4.6,0,9.3,0,13.9c0,0.8-0.1,1.6-0.1,2.5c-2.5,0.2-4.9,0.1-7.2,0.1
		c-0.4-1.9-0.4-38.2-0.1-41.4c1.1-0.3,2.3-0.1,3.5-0.1c1.2,0,2.4,0,3.5,0c0.6,0.6,0.4,1.1,0.4,1.7c0,4.4,0,8.8,0,13.2
		c0,0.8-0.2,1.6,0.2,2.3c0.1,0,0.2,0,0.3,0c0.1,0,0.2,0,0.2-0.1c0.1-0.1,0.3-0.2,0.4-0.3c0.2-0.2,0.4-0.3,0.5-0.5
		c5.8-5.4,11.6-10.8,17.3-16.2c0,0,0.1-0.1,0.3-0.2c2.8,0,5.8,0,8.8,0c0.1,0,0.2,0.1,0.5,0.3c-3.4,3.4-7,6.6-10.5,9.9
		c-3.5,3.3-7,6.5-10.6,9.9c2.6,2.6,5.3,4.9,7.9,7.2c2.5,2.3,5.1,4.6,7.7,6.9C625.8,147.8,628.4,150.1,631.3,152.9z"/>
	<path d="M391.8,222c-1.4,4.7-3.9,8.3-7.7,11.1c-2.8,2.1-6.1,3.3-9.5,3.7c-4.7,0.6-9.3,0.2-13.6-1.9c-7-3.4-11-9-12.1-16.7
		c-0.8-5.8,0.4-11.1,3.8-15.9c3.8-5.3,9-8.2,15.4-9.1c4.3-0.5,8.5-0.1,12.5,1.5c2.9,1.2,5.4,3,7.5,5.7c-1.4,2.1-3,4.1-4.5,6.2
		c-0.7-0.2-0.9-0.8-1.2-1.1c-4.8-5.7-12.8-6.4-18.3-3.4c-4.2,2.2-6.5,5.8-7.3,10.4c-0.4,2.5-0.3,5.1,0.5,7.6
		c2.5,7.3,9.3,10.5,15.8,9.5c6.2-0.9,10.3-4.4,12-10.5c0-0.1,0.1-0.3,0.4-0.7C387.6,219.6,389.7,220.8,391.8,222z"/>
	<path d="M481.2,235.5c-1.7,0.4-6.8,0.5-10.6,0.2c-6.5-5.8-13.1-11.8-19.6-17.7c-0.7,0.4-0.5,0.9-0.5,1.4c0,4.6,0,9.1,0,13.7v2.3
		c-1.6,0.5-3.9,0.6-7.2,0.3c-0.1,0-0.1-0.1-0.2-0.2c0-0.1-0.1-0.2-0.1-0.2c0-13,0-26.1,0-39.1v-1.9h7.3c0.2,1.2,0.1,2.3,0.1,3.3
		c0,1.2,0,2.4,0,3.6v7c0,1.1,0,2.2,0.1,3.2c0.3,0.1,0.3,0.1,0.4,0.1c0.1,0,0.2,0,0.2-0.1c6.1-5.7,12.3-11.5,18.3-17.1h9.7
		c-2.3,2.5-4.7,4.6-7,6.8c-2.3,2.2-4.7,4.4-7,6.5c-2.3,2.2-4.7,4.4-7,6.5c0.1,0.7,0.8,1.1,1.2,1.5c6.6,6,13.3,12,19.9,18
		C479.9,234.3,480.5,234.9,481.2,235.5z"/>
	<path d="M575.2,128.6c-2.2-0.9-4.6-1.4-7-1.5c-3-0.1-6.1,0-9.1-0.1c-0.7,0-1.4,0.1-2.3-0.2c-0.1-1.2-0.1-2.5-0.1-3.8
		c0-1.3,0-2.6,0-3.8c0-1.4,0-2.7,0-4.1c0-1.3,0.1-2.5-0.1-3.8h-7.3v39.7c0,0.4,0,0.8,0,1.2c0,0.1,0,0.2,0.1,0.2
		c0,0.1,0.1,0.1,0.2,0.2c0.1,0,0.4,0.1,0.6,0.1c5.6,0,11.2,0.1,16.8,0c2.5,0,4.9-0.4,7.3-1.2c5.3-1.9,8.4-6.1,8.3-11.8
		C582.6,134.5,580.1,130.6,575.2,128.6z M571.3,145.4c-1.3,0.5-2.6,0.8-4,0.8c-3.3,0-6.5,0-9.8,0c-0.1,0-0.3-0.1-0.7-0.3
		c0-4,0-8,0-11.8c0.6-0.5,1.1-0.4,1.5-0.4c3,0,5.9,0,8.9,0c1.4,0,2.7,0.2,4,0.7c2.3,1,3.6,2.8,3.7,5.4
		C575,142.4,573.7,144.4,571.3,145.4z"/>
	<path d="M432.6,219.2c-0.7-2.5-2.1-4.5-4.2-6c-1.3-0.9-2.7-1.6-4.3-2.1c-2.3-0.7-4.7-1-7.1-1c-2.8,0-5.6,0-8.4,0
		c-0.5,0-1,0.1-1.5-0.5v-15.2c-1.3-0.1-2.5-0.1-3.7-0.1c-1.2,0-2.5-0.2-3.7,0.2c-0.2,4.6-0.1,39.2,0.1,41.1c0.8,0.3,1.4,0.2,2.1,0.2
		c4.5,0,9,0,13.4,0c1.8,0,3.7-0.1,5.5-0.3c2.2-0.3,4.4-0.9,6.3-2.1c3.1-1.8,5-4.4,5.7-7.9C433.2,223.4,433.2,221.3,432.6,219.2z
		 M421.3,228.5c-1.1,0.5-2.3,0.7-3.5,0.7c-3.3,0-6.7,0-10,0c-0.1,0-0.3-0.1-0.4-0.2c-0.3-2-0.3-10,0-12c1.7-0.3,10.9-0.4,12.3-0.1
		c0.5,0.1,1.1,0.3,1.6,0.5c2.5,0.9,3.9,2.9,3.9,5.4C425.3,225.5,423.9,227.5,421.3,228.5z"/>
	<path fill="#010101" d="M337.6,196.5v39.4c-2.6,0-5,0.1-7.3-0.1c-0.3-2-0.4-39,0-41.3c0.2,0,0.4-0.2,0.6-0.2c2.2,0,4.3,0,6.3,0
		c0.2,0.2,0.3,0.2,0.3,0.3c0,0.1,0.1,0.1,0.1,0.2C337.5,195.3,337.6,195.9,337.6,196.5z"/>
	<path fill="#010101" d="M328,150.6v2.1h-7.1c-0.1-0.2-0.2-0.2-0.2-0.3c0-0.1-0.1-0.1-0.1-0.2c0-0.4-0.1-0.8-0.1-1.2v-39.5
		c1.2-0.5,2.5-0.2,3.6-0.3c1.2,0,2.4,0,3.4,0c0.2,0.2,0.3,0.3,0.3,0.3c0,0.1,0.1,0.1,0.1,0.2C327.9,124.7,328,137.7,328,150.6z"/>
	<path fill="#010101" d="M339.4,179.2c0,3.1-2.5,5.5-5.7,5.6c-2.6,0-5.4-2-5.5-5.5c0-3.3,2.5-5.8,5.5-5.7
		C336.9,173.6,339.4,176,339.4,179.2z"/>
	<path fill="#010101" d="M329.8,96.1c0.1,3.1-2.4,5.6-5.6,5.7c-3.1,0-5.5-2.2-5.6-5.3c-0.1-3.3,2.2-5.8,5.4-5.8
		C327.2,90.5,329.8,92.9,329.8,96.1z"/>
</g>
</svg>
